<?xml version="1.0" standalone="no"?>
<!DOCTYPE svg PUBLIC "-//W3C//DTD SVG 20010904//EN"
 "http://www.w3.org/TR/2001/REC-SVG-20010904/DTD/svg10.dtd">
<svg version="1.0" xmlns="http://www.w3.org/2000/svg"
 width="512.000000pt" height="512.000000pt" viewBox="0 0 512.000000 512.000000"
 preserveAspectRatio="xMidYMid meet">
<metadata>
Created by potrace 1.14, written by Peter Selinger 2001-2017
</metadata>
<g transform="translate(0.000000,512.000000) scale(0.100000,-0.100000)"
fill="#000000" stroke="none">
<path d="M1389 4923 c-13 -16 -12 -17 4 -4 16 13 21 21 13 21 -2 0 -10 -8 -17
-17z"/>
<path d="M1480 4915 c-7 -8 -17 -12 -23 -8 -6 4 -7 1 -3 -6 6 -9 13 -8 27 5
10 9 19 19 19 21 0 7 -8 2 -20 -12z"/>
<path d="M1607 4919 c7 -7 15 -10 18 -7 3 3 -2 9 -12 12 -14 6 -15 5 -6 -5z"/>
<path d="M1719 4913 c-13 -16 -12 -17 4 -4 9 7 17 15 17 17 0 8 -8 3 -21 -13z"/>
<path d="M1941 4914 c0 -11 3 -14 6 -6 3 7 2 16 -1 19 -3 4 -6 -2 -5 -13z"/>
<path d="M2259 4913 c-13 -16 -12 -17 4 -4 9 7 17 15 17 17 0 8 -8 3 -21 -13z"/>
<path d="M2375 4920 c-3 -5 -1 -10 4 -10 6 0 11 5 11 10 0 6 -2 10 -4 10 -3 0
-8 -4 -11 -10z"/>
<path d="M2544 4914 c-10 -8 -13 -13 -6 -9 6 3 18 3 25 -2 17 -11 36 -12 42
-3 2 4 -5 7 -18 6 -13 -1 -21 4 -19 12 3 16 0 15 -24 -4z"/>
<path d="M2895 4910 c10 -11 20 -20 23 -20 3 0 -3 9 -13 20 -10 11 -20 20 -23
20 -3 0 3 -9 13 -20z"/>
<path d="M2981 4914 c0 -11 3 -14 6 -6 3 7 2 16 -1 19 -3 4 -6 -2 -5 -13z"/>
<path d="M3019 4913 c-13 -16 -12 -17 4 -4 16 13 21 21 13 21 -2 0 -10 -8 -17
-17z"/>
<path d="M3196 4922 c-3 -5 1 -9 9 -9 8 0 12 4 9 9 -3 4 -7 8 -9 8 -2 0 -6 -4
-9 -8z"/>
<path d="M3310 4921 c0 -6 4 -13 10 -16 6 -3 7 1 4 9 -7 18 -14 21 -14 7z"/>
<path d="M1355 4911 c-3 -5 -1 -12 5 -16 18 -11 10 -20 -20 -21 -16 -1 -30 3
-30 9 0 6 -7 2 -15 -9 -8 -10 -15 -15 -15 -11 0 4 -9 3 -20 -3 -28 -15 -45 -3
-28 18 12 15 11 16 -4 3 -10 -7 -16 -17 -13 -21 3 -4 -2 -11 -11 -14 -23 -9
-24 -8 -18 12 3 9 -1 7 -9 -6 -11 -20 -15 -21 -25 -9 -7 7 -8 18 -4 22 4 5 1
5 -6 0 -10 -5 -11 -10 -3 -18 15 -15 14 -32 -2 -19 -9 8 -17 8 -27 0 -12 -8
-12 -9 3 -4 9 3 17 1 17 -4 0 -6 -7 -10 -15 -10 -8 0 -29 -9 -47 -19 -17 -11
-35 -18 -40 -15 -4 3 -8 -3 -8 -12 0 -10 -3 -15 -6 -11 -3 3 -20 -7 -38 -23
l-31 -30 -18 23 -18 22 11 -24 c10 -19 9 -26 -5 -40 -10 -9 -15 -11 -11 -4 3
6 2 14 -2 17 -5 3 -9 -7 -8 -22 1 -22 -3 -27 -22 -26 -12 0 -22 -3 -22 -8 0
-4 5 -8 11 -8 8 0 7 -5 -1 -15 -7 -9 -20 -13 -28 -10 -11 4 -12 2 -5 -7 13
-17 -49 -122 -63 -108 -6 6 -10 3 -10 -9 0 -11 4 -17 9 -14 16 10 -5 -41 -22
-54 -9 -6 -13 -15 -8 -19 4 -4 7 -2 7 4 0 7 4 12 10 12 5 0 7 -7 4 -15 -4 -8
-14 -15 -23 -15 -9 0 -12 -3 -6 -8 17 -12 17 -35 0 -28 -11 4 -14 2 -8 -7 10
-16 11 -77 1 -71 -9 6 -5 -32 5 -42 4 -4 -1 -13 -11 -21 -9 -8 -12 -12 -5 -9
17 9 11 -76 -7 -91 -8 -7 -10 -13 -5 -13 6 0 4 -4 -3 -9 -11 -7 -10 -9 3 -14
11 -5 14 -3 9 6 -4 7 -3 9 2 4 5 -5 9 -106 9 -225 0 -193 -2 -219 -17 -236
-20 -22 -22 -32 -8 -41 6 -4 7 1 3 11 -5 13 -3 15 7 9 8 -5 11 -4 6 3 -3 6 -2
13 2 16 11 7 8 -66 -3 -84 -5 -7 -4 -11 1 -7 5 3 9 -90 9 -228 0 -232 0 -233
-20 -217 -18 16 -19 16 -6 0 7 -9 10 -22 6 -27 -3 -7 0 -8 9 -5 9 3 16 1 16
-5 0 -6 -4 -11 -10 -11 -5 0 -10 -5 -10 -11 0 -5 3 -8 8 -6 4 3 7 -33 7 -79 1
-46 -2 -84 -7 -84 -4 0 -5 8 -3 18 2 11 -3 19 -10 19 -8 0 -11 -5 -7 -11 7
-11 8 -17 11 -37 0 -5 4 -8 9 -6 4 3 7 -23 7 -58 0 -36 -4 -61 -9 -58 -5 4 -6
1 -2 -5 13 -22 16 -55 5 -69 -8 -9 -8 -13 0 -13 6 0 11 -5 11 -11 0 -5 -6 -7
-12 -3 -10 6 -10 4 0 -7 16 -17 16 -34 -1 -21 -10 8 -13 6 -13 -7 0 -10 5 -17
11 -15 6 3 10 -36 11 -111 0 -95 -2 -113 -13 -103 -11 8 -12 7 -7 -6 3 -9 9
-16 13 -16 3 0 6 -122 6 -270 1 -149 -3 -270 -7 -270 -4 0 -8 -5 -8 -11 0 -5
3 -8 8 -5 4 2 8 -115 8 -260 0 -145 -3 -264 -7 -264 -4 0 -6 9 -4 20 2 11 0
20 -4 20 -5 0 -8 -14 -7 -30 0 -20 5 -29 13 -25 7 2 13 0 13 -4 0 -5 -7 -11
-15 -15 -8 -3 -15 -11 -14 -18 0 -10 2 -10 6 0 12 31 18 5 20 -88 0 -55 -3
-100 -7 -100 -5 0 -7 12 -5 27 2 16 2 22 -1 15 -3 -6 -11 -9 -17 -5 -9 5 -9 3
-1 -8 6 -8 10 -24 9 -36 -1 -16 2 -20 9 -13 8 6 11 -12 11 -65 0 -42 -4 -71
-9 -68 -5 4 -6 0 0 -8 4 -8 8 -58 9 -112 0 -89 -6 -116 -18 -84 -4 9 -6 9 -6
-1 -1 -7 6 -15 14 -18 8 -4 15 -10 15 -16 0 -5 -6 -6 -12 -2 -10 6 -10 4 -1
-7 17 -17 16 -30 0 -23 -8 3 -14 -2 -14 -10 0 -8 5 -12 12 -10 13 6 14 -153 1
-175 -6 -10 -5 -12 2 -7 19 11 14 -5 -6 -21 -13 -11 -14 -14 -2 -10 13 4 16
-6 14 -57 l-1 -63 75 2 c63 1 72 -1 56 -12 -10 -7 -13 -13 -7 -13 7 0 18 7 27
15 15 16 30 21 23 8 -3 -5 -1 -17 4 -28 8 -18 8 -18 6 4 -1 13 4 26 12 29 9 3
11 0 6 -8 -6 -10 -4 -11 6 -4 8 5 100 9 205 9 167 0 191 -1 187 -15 -3 -10 1
-8 12 5 12 14 19 16 22 8 3 -7 9 -13 14 -13 6 0 8 3 6 8 -3 4 111 7 253 7 159
1 256 -3 253 -9 -4 -5 -1 -6 8 0 8 5 100 9 205 9 167 0 191 -1 187 -15 -3 -10
1 -8 12 5 12 14 19 16 22 8 3 -7 9 -13 14 -13 6 0 8 3 6 7 -3 5 111 8 253 8
159 1 256 -3 253 -9 -4 -5 -1 -6 8 0 8 5 100 9 205 9 167 0 191 -1 187 -15 -3
-10 1 -8 12 5 12 14 19 16 22 8 3 -7 9 -13 14 -13 6 0 8 3 6 8 -7 10 345 9
362 -2 9 -6 12 -5 8 1 -9 14 91 9 105 -5 7 -7 17 -12 22 -12 6 0 3 5 -6 11
-10 5 -18 15 -18 21 0 6 6 5 16 -3 13 -10 17 -10 25 2 6 10 9 10 9 2 0 -7 5
-13 11 -13 5 0 8 4 5 8 -3 5 0 9 7 10 35 3 64 9 77 17 10 6 12 4 7 -8 -3 -9
-1 -19 6 -23 7 -4 9 -4 5 1 -4 4 -3 16 3 27 8 16 13 17 25 7 8 -6 17 -9 21 -5
3 3 1 6 -6 6 -18 0 -4 17 19 23 18 5 19 3 9 -11 -7 -9 1 -2 19 16 17 17 38 32
46 32 9 0 16 5 16 12 0 6 3 8 7 4 5 -4 -1 -15 -12 -23 -12 -9 -14 -14 -5 -11
8 2 19 14 25 26 12 26 26 29 20 4 -3 -9 0 -5 7 9 8 16 20 25 31 23 13 -2 15 1
8 10 -12 15 23 40 42 30 9 -5 9 -4 1 6 -9 9 -3 21 27 51 21 21 37 39 34 39 -3
0 0 6 7 14 7 8 17 11 22 8 5 -3 6 0 2 6 -4 6 4 35 18 64 14 29 30 66 35 81 7
18 15 26 23 21 10 -5 10 -4 1 6 -7 8 -9 21 -3 35 8 21 21 87 23 113 0 6 4 12
9 12 5 0 6 4 3 10 -3 5 0 10 7 10 9 0 9 3 2 8 -14 9 -14 113 -1 105 6 -4 7 -1
2 8 -5 7 -9 40 -10 72 -1 43 2 56 12 53 17 -7 27 12 15 27 -5 7 -8 20 -7 30 2
9 0 15 -5 12 -9 -6 -7 -31 3 -41 12 -12 8 -24 -6 -19 -6 3 -13 23 -13 45 -1
24 3 37 9 33 6 -4 7 -1 1 8 -12 19 -12 219 0 212 5 -4 6 -1 0 8 -14 21 -12
180 2 175 6 -2 11 2 11 10 0 8 -6 13 -14 10 -20 -8 -16 4 9 23 17 14 18 18 5
18 -9 0 -14 -4 -11 -9 3 -4 1 -8 -3 -8 -5 0 -9 45 -9 100 0 55 4 100 8 100 5
0 7 -4 3 -9 -3 -5 -2 -12 3 -15 4 -2 8 6 8 20 0 16 -4 23 -13 20 -7 -3 -13 -1
-13 4 0 6 6 10 13 10 8 0 8 3 1 8 -12 9 -14 202 -2 202 5 0 7 -4 3 -9 -3 -5
-2 -12 3 -15 4 -2 8 6 8 20 0 16 -4 23 -13 20 -7 -3 -13 -1 -13 4 0 6 6 10 13
10 8 0 8 3 1 8 -12 9 -14 202 -2 202 5 0 7 -4 3 -9 -3 -5 -1 -12 4 -15 11 -7
6 54 -6 63 -12 9 -13 142 0 134 6 -4 7 -1 1 8 -11 18 -12 859 -1 859 5 0 6 -4
2 -9 -3 -5 -2 -12 3 -15 4 -2 8 8 7 24 0 18 -4 25 -10 20 -13 -10 -14 168 -2
188 5 7 4 12 -2 12 -6 0 -10 11 -9 24 1 13 7 22 13 19 7 -2 12 3 12 11 0 8 -5
12 -11 10 -7 -3 -11 25 -11 86 -1 49 3 84 7 77 4 -7 8 -7 8 -2 0 17 -17 38
-26 32 -5 -3 -45 31 -89 75 -44 45 -75 78 -70 75 6 -3 17 -2 24 2 9 6 4 9 -14
9 -18 0 -39 13 -68 43 -23 24 -40 47 -39 52 1 4 -3 7 -8 7 -6 0 -23 12 -38 26
-15 15 -21 23 -13 19 9 -5 12 -4 7 3 -4 7 -12 12 -18 12 -17 0 -100 88 -94 99
4 5 1 13 -5 17 -8 4 -9 3 -5 -4 12 -20 -6 -13 -25 9 -10 12 -16 25 -14 30 3 4
0 11 -6 15 -8 5 -9 3 -4 -6 5 -8 3 -11 -6 -8 -8 3 -13 11 -11 17 1 6 -2 11 -8
11 -15 0 -50 33 -44 42 3 5 1 7 -4 6 -11 -4 -188 172 -184 184 1 4 -3 8 -9 8
-15 0 -50 40 -44 51 3 4 0 11 -6 15 -8 4 -9 3 -5 -4 4 -7 3 -12 -2 -12 -17 0
-22 13 -10 27 8 11 7 12 -5 8 -17 -7 -59 24 -51 37 3 5 1 7 -3 6 -14 -4 -94
80 -96 101 0 10 -7 18 -14 18 -7 0 -9 -5 -5 -12 4 -6 -2 -2 -13 10 -28 29 -61
53 -51 38 9 -16 1 -16 -26 -2 -11 6 -18 7 -15 2 3 -5 -14 -9 -39 -9 -38 1 -42
3 -27 13 9 7 12 13 6 13 -7 0 -18 -6 -26 -14 -11 -11 -17 -12 -27 -3 -7 7 -10
8 -7 2 3 -6 -24 -10 -73 -11 -68 0 -76 2 -62 14 15 11 13 11 -8 1 -31 -16 -51
-17 -69 -4 -10 7 -13 7 -9 0 4 -6 -2 -11 -12 -11 -10 0 -16 5 -13 10 4 5 1 6
-8 0 -17 -11 -109 -13 -103 -2 3 5 9 6 14 3 5 -3 11 -1 15 4 3 6 -4 8 -17 6
-13 -3 -25 -10 -26 -15 -3 -7 -10 -6 -20 2 -9 7 -13 9 -10 3 7 -12 -444 -15
-453 -3 -8 13 -48 18 -54 8 -3 -5 4 -7 15 -5 11 2 20 0 20 -5 0 -14 -61 -5
-72 11 -8 12 -9 12 -5 -1 4 -13 -13 -15 -108 -15 -73 0 -111 4 -107 10 3 6 -2
4 -11 -4 -15 -12 -17 -11 -18 5 0 15 -2 16 -7 4 -4 -8 -19 -16 -35 -17 -15 -1
-25 2 -22 7 3 4 -2 10 -10 14 -8 3 -17 0 -21 -6 -4 -7 -3 -8 4 -4 7 4 12 3 12
-2 0 -10 -136 -9 -146 1 -4 3 3 4 15 2 12 -2 19 0 17 4 -7 10 -53 8 -63 -3 -4
-5 -2 -6 5 -2 6 4 12 3 12 -1 0 -11 -151 -10 -168 1 -6 4 -12 3 -12 -3 0 -9
-37 -7 -67 4 -7 2 -13 1 -13 -4 0 -8 -93 -5 -118 4 -7 3 -10 9 -7 15 3 5 4 10
1 10 -3 0 -7 -4 -11 -9z m3060 -2541 c3 -5 1 -10 -4 -10 -6 0 -11 5 -11 10 0
6 2 10 4 10 3 0 8 -4 11 -10z"/>
<path d="M1868 4913 c7 -3 16 -2 19 1 4 3 -2 6 -13 5 -11 0 -14 -3 -6 -6z"/>
<path d="M2089 4903 c-13 -16 -12 -17 4 -4 9 7 17 15 17 17 0 8 -8 3 -21 -13z"/>
<path d="M2481 4917 c2 -1 13 -9 24 -17 19 -14 19 -14 6 3 -7 9 -18 17 -24 17
-6 0 -8 -1 -6 -3z"/>
<path d="M2636 4907 c3 -10 9 -15 12 -12 3 3 0 11 -7 18 -10 9 -11 8 -5 -6z"/>
<path d="M3073 4905 c0 -8 4 -12 9 -9 5 3 6 10 3 15 -9 13 -12 11 -12 -6z"/>
<path d="M3350 4917 c0 -2 6 -10 14 -16 11 -9 16 -9 22 1 4 7 4 10 -1 6 -4 -4
-14 -3 -22 3 -7 6 -13 9 -13 6z"/>
<path d="M1536 4898 c3 -5 10 -6 15 -3 13 9 11 12 -6 12 -8 0 -12 -4 -9 -9z"/>
<path d="M2160 4900 c-9 -6 -10 -10 -3 -10 6 0 15 5 18 10 8 12 4 12 -15 0z"/>
<path d="M2746 4898 c3 -5 10 -6 15 -3 13 9 11 12 -6 12 -8 0 -12 -4 -9 -9z"/>
<path d="M3267 4899 c7 -7 15 -10 18 -7 3 3 -2 9 -12 12 -14 6 -15 5 -6 -5z"/>
<path d="M1251 4877 c-13 -21 -12 -21 5 -5 10 10 16 20 13 22 -3 3 -11 -5 -18
-17z"/>
<path d="M1326 4892 c-3 -5 1 -9 9 -9 8 0 12 4 9 9 -3 4 -7 8 -9 8 -2 0 -6 -4
-9 -8z"/>
<path d="M1073 4815 c0 -8 4 -12 9 -9 5 3 6 10 3 15 -9 13 -12 11 -12 -6z"/>
<path d="M3486 4798 c3 -5 10 -6 15 -3 13 9 11 12 -6 12 -8 0 -12 -4 -9 -9z"/>
<path d="M995 4780 c-3 -5 -1 -10 4 -10 6 0 11 5 11 10 0 6 -2 10 -4 10 -3 0
-8 -4 -11 -10z"/>
<path d="M3513 4766 c0 -15 22 -15 34 0 4 5 4 6 -1 2 -5 -4 -14 -3 -21 2 -8 7
-12 5 -12 -4z"/>
<path d="M870 4660 c0 -5 5 -10 11 -10 5 0 7 5 4 10 -3 6 -8 10 -11 10 -2 0
-4 -4 -4 -10z"/>
<path d="M3695 4591 c-3 -5 -2 -12 3 -15 5 -3 9 1 9 9 0 17 -3 19 -12 6z"/>
<path d="M3726 4562 c-3 -5 1 -9 9 -9 8 0 12 4 9 9 -3 4 -7 8 -9 8 -2 0 -6 -4
-9 -8z"/>
<path d="M783 4534 c-13 -14 -18 -24 -11 -22 10 4 45 48 37 48 -2 0 -14 -12
-26 -26z"/>
<path d="M3750 4520 c0 -4 7 -7 15 -6 23 3 26 12 5 13 -11 1 -20 -2 -20 -7z"/>
<path d="M3833 4446 c0 -15 22 -15 34 0 4 5 4 6 -1 2 -5 -4 -14 -3 -21 2 -8 7
-12 5 -12 -4z"/>
<path d="M701 4314 c0 -11 3 -14 6 -6 3 7 2 16 -1 19 -3 4 -6 -2 -5 -13z"/>
<path d="M4015 4271 c-3 -5 -2 -12 3 -15 5 -3 9 1 9 9 0 17 -3 19 -12 6z"/>
<path d="M699 4248 c-6 -21 -5 -38 1 -38 5 0 8 9 7 20 -1 17 -5 26 -8 18z"/>
<path d="M4070 4205 c0 -7 30 -13 34 -7 3 4 -4 9 -15 9 -10 1 -19 0 -19 -2z"/>
<path d="M680 4193 c0 -6 8 -17 18 -24 16 -13 16 -13 2 6 -8 11 -16 22 -17 24
-2 2 -3 0 -3 -6z"/>
<path d="M670 4161 c0 -6 4 -13 10 -16 6 -3 7 1 4 9 -7 18 -14 21 -14 7z"/>
<path d="M4175 4111 c-3 -5 -2 -12 3 -15 5 -3 9 1 9 9 0 17 -3 19 -12 6z"/>
<path d="M670 4038 c0 -6 3 -8 7 -5 3 4 11 2 18 -3 8 -7 12 -6 12 3 0 7 -9 14
-19 14 -10 1 -18 -3 -18 -9z"/>
<path d="M688 3996 c4 -6 7 -14 7 -18 0 -19 11 -14 11 6 0 12 -6 23 -13 23 -6
0 -9 -5 -5 -11z"/>
<path d="M4277 3996 c-3 -8 2 -20 11 -27 14 -11 15 -11 5 0 -6 7 -9 20 -6 27
3 8 3 14 0 14 -3 0 -7 -6 -10 -14z"/>
<path d="M681 3954 c-1 -6 5 -17 12 -23 10 -8 14 -7 14 4 0 8 -4 12 -8 9 -4
-2 -10 2 -12 8 -4 8 -6 9 -6 2z"/>
<path d="M4324 3939 c-4 -7 -3 -9 4 -5 5 3 13 0 15 -6 4 -9 6 -10 6 -1 1 17
-16 25 -25 12z"/>
<path d="M679 3893 c-13 -16 -12 -17 4 -4 9 7 17 15 17 17 0 8 -8 3 -21 -13z"/>
<path d="M4360 3896 c0 -2 8 -10 18 -17 15 -13 16 -12 3 4 -13 16 -21 21 -21
13z"/>
<path d="M699 3888 c-5 -14 -4 -58 1 -58 4 0 7 14 6 30 -1 26 -3 36 -7 28z"/>
<path d="M687 3799 c7 -7 15 -10 18 -7 3 3 -2 9 -12 12 -14 6 -15 5 -6 -5z"/>
<path d="M681 3754 c-1 -6 5 -17 12 -23 10 -8 14 -7 14 4 0 8 -4 12 -8 9 -4
-2 -10 2 -12 8 -4 8 -6 9 -6 2z"/>
<path d="M4420 3735 c0 -5 5 -17 10 -25 5 -8 10 -10 10 -5 0 6 -5 17 -10 25
-5 8 -10 11 -10 5z"/>
<path d="M693 3663 c4 -3 -1 -16 -10 -27 -18 -21 -18 -21 4 -2 20 16 23 36 6
36 -4 0 -3 -3 0 -7z"/>
<path d="M4430 3621 c0 -6 4 -13 10 -16 6 -3 7 1 4 9 -7 18 -14 21 -14 7z"/>
<path d="M4415 3560 c-4 -6 -1 -9 7 -8 7 2 12 -3 10 -10 -1 -8 2 -11 8 -7 8 5
7 11 -1 21 -14 17 -16 17 -24 4z"/>
<path d="M680 3535 c-11 -13 -11 -18 0 -28 10 -9 11 -9 6 1 -4 7 -2 19 4 27 7
8 10 15 7 15 -2 0 -10 -7 -17 -15z"/>
<path d="M4415 3440 c-3 -5 -1 -10 4 -10 6 0 11 5 11 10 0 6 -2 10 -4 10 -3 0
-8 -4 -11 -10z"/>
<path d="M678 3413 c7 -3 16 -2 19 1 4 3 -2 6 -13 5 -11 0 -14 -3 -6 -6z"/>
<path d="M681 3376 c-9 -11 -9 -16 1 -22 7 -4 10 -4 6 1 -4 4 -3 14 3 22 6 7
9 13 6 13 -2 0 -10 -6 -16 -14z"/>
<path d="M4433 3343 c4 -3 -1 -12 -11 -20 -15 -13 -15 -13 6 -3 19 9 23 30 5
30 -4 0 -3 -3 0 -7z"/>
<path d="M678 3333 c7 -3 16 -2 19 1 4 3 -2 6 -13 5 -11 0 -14 -3 -6 -6z"/>
<path d="M677 3292 c-15 -16 -15 -19 -2 -19 8 0 13 3 10 5 -3 3 0 11 6 19 17
20 5 16 -14 -5z"/>
<path d="M693 3208 c1 -15 6 -23 11 -18 4 4 4 16 -2 26 -9 16 -10 14 -9 -8z"/>
<path d="M4424 3170 c0 -13 4 -16 10 -10 7 7 7 13 0 20 -6 6 -10 3 -10 -10z"/>
<path d="M690 3160 c-9 -6 -10 -10 -3 -10 6 0 15 5 18 10 8 12 4 12 -15 0z"/>
<path d="M4415 3129 c-4 -6 -5 -12 -2 -15 2 -3 7 2 10 11 7 17 1 20 -8 4z"/>
<path d="M4416 3078 c3 -5 10 -6 15 -3 13 9 11 12 -6 12 -8 0 -12 -4 -9 -9z"/>
<path d="M693 2965 c0 -8 4 -12 9 -9 5 3 6 10 3 15 -9 13 -12 11 -12 -6z"/>
<path d="M4430 2950 c-9 -6 -10 -10 -3 -10 6 0 15 5 18 10 8 12 4 12 -15 0z"/>
<path d="M4430 2921 c0 -6 4 -13 10 -16 6 -3 7 1 4 9 -7 18 -14 21 -14 7z"/>
<path d="M4415 2889 c-4 -6 -5 -12 -2 -15 2 -3 7 2 10 11 7 17 1 20 -8 4z"/>
<path d="M680 2831 c0 -6 4 -13 10 -16 6 -3 7 1 4 9 -7 18 -14 21 -14 7z"/>
<path d="M4410 2811 c0 -6 4 -13 10 -16 6 -3 7 1 4 9 -7 18 -14 21 -14 7z"/>
<path d="M676 2701 c-3 -5 1 -14 8 -20 10 -9 16 -9 21 -1 4 6 1 9 -7 8 -7 -2
-12 3 -10 10 2 14 -4 16 -12 3z"/>
<path d="M4424 2690 c0 -13 4 -16 10 -10 7 7 7 13 0 20 -6 6 -10 3 -10 -10z"/>
<path d="M4415 2649 c-4 -6 -5 -12 -2 -15 2 -3 7 2 10 11 7 17 1 20 -8 4z"/>
<path d="M676 2627 c3 -10 9 -15 12 -12 3 3 0 11 -7 18 -10 9 -11 8 -5 -6z"/>
<path d="M4416 2598 c3 -4 11 -5 19 -1 21 7 19 12 -4 10 -11 0 -18 -5 -15 -9z"/>
<path d="M679 2533 c-13 -16 -12 -17 4 -4 9 7 17 15 17 17 0 8 -8 3 -21 -13z"/>
<path d="M4414 2499 c-3 -6 -2 -15 3 -20 5 -5 9 -1 10 11 2 22 -2 25 -13 9z"/>
<path d="M686 2482 c-3 -5 1 -9 9 -9 8 0 12 4 9 9 -3 4 -7 8 -9 8 -2 0 -6 -4
-9 -8z"/>
<path d="M690 2420 c0 -5 5 -10 11 -10 5 0 7 5 4 10 -3 6 -8 10 -11 10 -2 0
-4 -4 -4 -10z"/>
<path d="M4410 2406 c0 -2 7 -7 16 -10 8 -3 12 -2 9 4 -6 10 -25 14 -25 6z"/>
<path d="M4415 2300 c-3 -5 -1 -10 4 -10 6 0 11 5 11 10 0 6 -2 10 -4 10 -3 0
-8 -4 -11 -10z"/>
<path d="M4415 2260 c-3 -5 -1 -10 4 -10 6 0 11 5 11 10 0 6 -2 10 -4 10 -3 0
-8 -4 -11 -10z"/>
<path d="M4417 2213 c-10 -9 -9 -23 1 -23 5 0 9 7 9 15 0 17 -1 18 -10 8z"/>
<path d="M680 2200 c-12 -7 -10 -9 7 -7 12 0 19 5 17 9 -6 10 -6 10 -24 -2z"/>
<path d="M696 2153 c-6 -14 -5 -15 5 -6 7 7 10 15 7 18 -3 3 -9 -2 -12 -12z"/>
<path d="M684 2119 c-3 -6 -2 -15 3 -20 5 -5 9 -1 9 11 0 23 -2 24 -12 9z"/>
<path d="M4415 2060 c-3 -5 -1 -10 4 -10 6 0 11 5 11 10 0 6 -2 10 -4 10 -3 0
-8 -4 -11 -10z"/>
<path d="M4415 2020 c-3 -5 -1 -10 4 -10 6 0 11 5 11 10 0 6 -2 10 -4 10 -3 0
-8 -4 -11 -10z"/>
<path d="M4417 1973 c-10 -9 -9 -23 1 -23 5 0 9 7 9 15 0 17 -1 18 -10 8z"/>
<path d="M686 1962 c-3 -5 1 -9 9 -9 8 0 12 4 9 9 -3 4 -7 8 -9 8 -2 0 -6 -4
-9 -8z"/>
<path d="M695 1920 c-3 -5 -1 -10 4 -10 6 0 11 5 11 10 0 6 -2 10 -4 10 -3 0
-8 -4 -11 -10z"/>
<path d="M690 1880 c0 -5 5 -10 10 -10 6 0 10 5 10 10 0 6 -4 10 -10 10 -5 0
-10 -4 -10 -10z"/>
<path d="M680 1825 c13 -14 26 -25 28 -25 3 0 -5 11 -18 25 -13 14 -26 25 -28
25 -3 0 5 -11 18 -25z"/>
<path d="M4415 1820 c-3 -5 -1 -10 4 -10 6 0 11 5 11 10 0 6 -2 10 -4 10 -3 0
-8 -4 -11 -10z"/>
<path d="M4415 1780 c-3 -5 -1 -10 4 -10 6 0 11 5 11 10 0 6 -2 10 -4 10 -3 0
-8 -4 -11 -10z"/>
<path d="M691 1753 c7 -12 15 -20 18 -17 3 2 -3 12 -13 22 -17 16 -18 16 -5
-5z"/>
<path d="M670 1736 c0 -2 8 -10 18 -17 15 -13 16 -12 3 4 -13 16 -21 21 -21
13z"/>
<path d="M4417 1733 c-10 -9 -9 -23 1 -23 5 0 9 7 9 15 0 17 -1 18 -10 8z"/>
<path d="M679 1633 c-12 -16 -12 -17 2 -6 9 7 19 10 22 6 4 -3 7 -1 7 5 0 17
-16 15 -31 -5z"/>
<path d="M690 1603 c0 -5 5 -15 10 -23 7 -12 9 -10 7 8 -1 19 -17 33 -17 15z"/>
<path d="M4415 1580 c-3 -5 -1 -10 4 -10 6 0 11 5 11 10 0 6 -2 10 -4 10 -3 0
-8 -4 -11 -10z"/>
<path d="M4415 1540 c3 -5 8 -10 11 -10 2 0 4 5 4 10 0 6 -5 10 -11 10 -5 0
-7 -4 -4 -10z"/>
<path d="M4417 1493 c-10 -9 -9 -23 1 -23 5 0 9 7 9 15 0 17 -1 18 -10 8z"/>
<path d="M679 1473 c-12 -16 -12 -17 2 -6 9 7 19 10 22 6 4 -3 7 -1 7 5 0 17
-16 15 -31 -5z"/>
<path d="M4435 1450 c-3 -5 -3 -10 2 -10 4 0 1 -5 -7 -11 -12 -8 -12 -10 -1
-7 8 2 15 12 17 21 3 19 -2 22 -11 7z"/>
<path d="M690 1443 c0 -5 5 -15 10 -23 7 -12 9 -10 7 8 -1 19 -17 33 -17 15z"/>
<path d="M670 1416 c0 -2 8 -10 18 -17 15 -13 16 -12 3 4 -13 16 -21 21 -21
13z"/>
<path d="M4426 1362 c-3 -5 1 -9 9 -9 8 0 12 4 9 9 -3 4 -7 8 -9 8 -2 0 -6 -4
-9 -8z"/>
<path d="M679 1313 c-12 -16 -12 -17 2 -6 9 7 19 10 22 6 4 -3 7 -1 7 5 0 17
-16 15 -31 -5z"/>
<path d="M4416 1318 c3 -5 10 -6 15 -3 13 9 11 12 -6 12 -8 0 -12 -4 -9 -9z"/>
<path d="M4416 1258 c3 -4 11 -5 19 -1 21 7 19 12 -4 10 -11 0 -18 -5 -15 -9z"/>
<path d="M680 1080 c-13 -8 -12 -10 3 -10 9 0 17 5 17 10 0 12 -1 12 -20 0z"/>
<path d="M4417 1047 c-3 -8 1 -14 8 -14 7 0 11 6 8 14 -3 7 -6 13 -8 13 -2 0
-5 -6 -8 -13z"/>
<path d="M4415 980 c-3 -5 -1 -10 4 -10 6 0 11 5 11 10 0 6 -2 10 -4 10 -3 0
-8 -4 -11 -10z"/>
<path d="M679 933 c-13 -16 -12 -17 4 -4 9 7 17 15 17 17 0 8 -8 3 -21 -13z"/>
<path d="M685 880 c-3 -5 -1 -10 4 -10 6 0 11 5 11 10 0 6 -2 10 -4 10 -3 0
-8 -4 -11 -10z"/>
<path d="M4415 860 c-3 -5 -1 -10 4 -10 6 0 11 5 11 10 0 6 -2 10 -4 10 -3 0
-8 -4 -11 -10z"/>
<path d="M690 819 c0 -5 5 -7 10 -4 6 3 10 8 10 11 0 2 -4 4 -10 4 -5 0 -10
-5 -10 -11z"/>
<path d="M4390 779 c0 -5 5 -7 10 -4 6 3 10 8 10 11 0 2 -4 4 -10 4 -5 0 -10
-5 -10 -11z"/>
<path d="M678 733 c7 -3 16 -2 19 1 4 3 -2 6 -13 5 -11 0 -14 -3 -6 -6z"/>
<path d="M684 699 c-3 -6 -2 -15 3 -20 5 -5 9 -1 9 11 0 23 -2 24 -12 9z"/>
<path d="M4352 634 c-7 -8 -8 -14 -3 -14 10 0 25 19 20 25 -2 1 -10 -3 -17
-11z"/>
<path d="M4310 581 c0 -6 4 -12 8 -15 5 -3 9 1 9 9 0 8 -4 15 -9 15 -4 0 -8
-4 -8 -9z"/>
<path d="M696 535 c-9 -26 -7 -32 5 -12 6 10 9 21 6 23 -2 3 -7 -2 -11 -11z"/>
<path d="M4310 536 c0 -2 8 -10 18 -17 15 -13 16 -12 3 4 -13 16 -21 21 -21
13z"/>
<path d="M4277 496 c-10 -8 -14 -16 -10 -19 5 -3 14 3 21 14 14 22 13 23 -11
5z"/>
<path d="M694 480 c0 -13 4 -16 10 -10 7 7 7 13 0 20 -6 6 -10 3 -10 -10z"/>
<path d="M4222 447 c-8 -9 -8 -17 0 -27 8 -12 9 -12 4 2 -6 20 10 34 17 16 4
-9 6 -10 6 -1 1 18 -15 24 -27 10z"/>
<path d="M685 440 c-3 -5 -1 -10 4 -10 6 0 11 5 11 10 0 6 -2 10 -4 10 -3 0
-8 -4 -11 -10z"/>
<path d="M4175 400 c-3 -5 -1 -10 4 -10 6 0 11 5 11 10 0 6 -2 10 -4 10 -3 0
-8 -4 -11 -10z"/>
<path d="M677 339 c7 -7 15 -10 18 -7 3 3 -2 9 -12 12 -14 6 -15 5 -6 -5z"/>
<path d="M4030 300 c0 -5 5 -10 10 -10 6 0 10 5 10 10 0 6 -4 10 -10 10 -5 0
-10 -4 -10 -10z"/>
<path d="M690 270 c0 -5 5 -10 11 -10 5 0 7 5 4 10 -3 6 -8 10 -11 10 -2 0 -4
-4 -4 -10z"/>
<path d="M3956 233 c-6 -14 -5 -15 5 -6 7 7 10 15 7 18 -3 3 -9 -2 -12 -12z"/>
<path d="M1080 220 c-12 -7 -10 -9 8 -7 12 0 22 5 22 9 0 11 -12 10 -30 -2z"/>
<path d="M1186 221 c-3 -4 4 -7 14 -6 27 2 33 10 10 12 -11 1 -22 -2 -24 -6z"/>
<path d="M1560 220 c-12 -7 -10 -9 8 -7 12 0 22 5 22 9 0 11 -12 10 -30 -2z"/>
<path d="M1604 222 c4 -3 14 -7 22 -8 9 -1 13 0 10 4 -4 3 -14 7 -22 8 -9 1
-13 0 -10 -4z"/>
<path d="M1670 221 c0 -6 4 -13 10 -16 6 -3 7 1 4 9 -7 18 -14 21 -14 7z"/>
<path d="M1715 219 c-3 -4 2 -6 10 -5 21 3 28 13 10 13 -9 0 -18 -4 -20 -8z"/>
<path d="M1766 218 c3 -5 10 -6 15 -3 13 9 11 12 -6 12 -8 0 -12 -4 -9 -9z"/>
<path d="M1830 220 c0 -6 4 -9 9 -5 5 3 12 -2 14 -10 4 -12 5 -12 3 1 -1 19
-26 32 -26 14z"/>
<path d="M2040 220 c-12 -7 -10 -9 8 -7 12 0 22 5 22 9 0 11 -12 10 -30 -2z"/>
<path d="M2146 221 c-3 -4 4 -7 14 -6 27 2 33 10 10 12 -11 1 -22 -2 -24 -6z"/>
<path d="M2520 220 c-12 -7 -10 -9 8 -7 12 0 22 5 22 9 0 11 -12 10 -30 -2z"/>
<path d="M2564 222 c4 -3 14 -7 22 -8 9 -1 13 0 10 4 -4 3 -14 7 -22 8 -9 1
-13 0 -10 -4z"/>
<path d="M2630 221 c0 -6 4 -13 10 -16 6 -3 7 1 4 9 -7 18 -14 21 -14 7z"/>
<path d="M2675 219 c-3 -4 2 -6 10 -5 21 3 28 13 10 13 -9 0 -18 -4 -20 -8z"/>
<path d="M2726 218 c3 -5 10 -6 15 -3 13 9 11 12 -6 12 -8 0 -12 -4 -9 -9z"/>
<path d="M2790 220 c0 -6 4 -9 9 -5 5 3 12 -2 14 -10 4 -12 5 -12 3 1 -1 19
-26 32 -26 14z"/>
<path d="M3000 220 c-12 -7 -10 -9 8 -7 12 0 22 5 22 9 0 11 -12 10 -30 -2z"/>
<path d="M3106 221 c-3 -4 4 -7 14 -6 27 2 33 10 10 12 -11 1 -22 -2 -24 -6z"/>
<path d="M3480 220 c-12 -7 -10 -9 8 -7 12 0 22 5 22 9 0 11 -12 10 -30 -2z"/>
<path d="M3526 218 c3 -5 10 -6 15 -3 13 9 11 12 -6 12 -8 0 -12 -4 -9 -9z"/>
<path d="M3590 220 c0 -5 5 -10 10 -10 6 0 10 5 10 10 0 6 -4 10 -10 10 -5 0
-10 -4 -10 -10z"/>
<path d="M3835 220 c-3 -5 -1 -10 4 -10 6 0 11 5 11 10 0 6 -2 10 -4 10 -3 0
-8 -4 -11 -10z"/>
<path d="M797 213 c-10 -10 -8 -23 4 -23 5 0 8 4 5 9 -4 5 0 12 6 14 7 3 8 6
2 6 -6 1 -14 -2 -17 -6z"/>
<path d="M972 211 c-8 -4 -24 -7 -38 -5 -13 1 -22 -1 -19 -6 6 -10 55 -4 68 9
13 13 7 14 -11 2z"/>
<path d="M1290 211 c0 -6 4 -13 10 -16 6 -3 7 1 4 9 -7 18 -14 21 -14 7z"/>
<path d="M1450 210 c-9 -6 -10 -10 -3 -10 6 0 15 5 18 10 8 12 4 12 -15 0z"/>
<path d="M1932 211 c-8 -4 -24 -7 -38 -5 -13 1 -22 -1 -19 -6 6 -10 55 -4 68
9 13 13 7 14 -11 2z"/>
<path d="M2250 211 c0 -6 4 -13 10 -16 6 -3 7 1 4 9 -7 18 -14 21 -14 7z"/>
<path d="M2410 210 c-9 -6 -10 -10 -3 -10 6 0 15 5 18 10 8 12 4 12 -15 0z"/>
<path d="M2892 211 c-8 -4 -24 -7 -38 -5 -13 1 -22 -1 -19 -6 6 -10 55 -4 68
9 13 13 7 14 -11 2z"/>
<path d="M3210 211 c0 -6 4 -13 10 -16 6 -3 7 1 4 9 -7 18 -14 21 -14 7z"/>
<path d="M3370 210 c-9 -6 -10 -10 -3 -10 6 0 15 5 18 10 8 12 4 12 -15 0z"/>
<path d="M3724 198 l-19 -23 23 19 c12 11 22 21 22 23 0 8 -8 2 -26 -19z"/>
<path d="M1350 199 c0 -5 5 -7 10 -4 6 3 10 8 10 11 0 2 -4 4 -10 4 -5 0 -10
-5 -10 -11z"/>
<path d="M1415 200 c3 -5 8 -10 11 -10 2 0 4 5 4 10 0 6 -5 10 -11 10 -5 0 -7
-4 -4 -10z"/>
<path d="M2310 199 c0 -5 5 -7 10 -4 6 3 10 8 10 11 0 2 -4 4 -10 4 -5 0 -10
-5 -10 -11z"/>
<path d="M2375 200 c3 -5 8 -10 11 -10 2 0 4 5 4 10 0 6 -5 10 -11 10 -5 0 -7
-4 -4 -10z"/>
<path d="M3270 199 c0 -5 5 -7 10 -4 6 3 10 8 10 11 0 2 -4 4 -10 4 -5 0 -10
-5 -10 -11z"/>
<path d="M3335 200 c3 -5 8 -10 11 -10 2 0 4 5 4 10 0 6 -5 10 -11 10 -5 0 -7
-4 -4 -10z"/>
<path d="M3635 199 c-3 -4 2 -6 10 -5 21 3 28 13 10 13 -9 0 -18 -4 -20 -8z"/>
</g>
</svg>
